<?xml version="1.0" standalone="no"?><!DOCTYPE svg PUBLIC "-//W3C//DTD SVG 1.1//EN" "http://www.w3.org/Graphics/SVG/1.1/DTD/svg11.dtd"><svg t="1609329211870" class="icon" viewBox="0 0 1024 1024" version="1.1" xmlns="http://www.w3.org/2000/svg" p-id="2500" xmlns:xlink="http://www.w3.org/1999/xlink" width="200" height="200"><defs><style type="text/css"></style></defs><path d="M40 212a40 40 0 1 1 0-80h466a40 40 0 1 1 0 80H40z m706 130c-66.168 0-120-53.832-120-120V120c0-66.168 53.832-120 120-120s120 53.832 120 120v12H984a40 40 0 1 1 0 80h-118v10c0 66.168-53.832 120-120 120z m-40-222v102c0 22.056 17.944 40 40 40s40-17.944 40-40V120c0-22.056-17.944-40-40-40s-40 17.944-40 40z m-200.096 694a40 40 0 1 1 0 80H40a40 40 0 1 1 0-80h465.904zM40 551.76a40 40 0 1 1 0-80h114a40 40 0 1 1 0 80H40z m944-80a40 40 0 0 1 0 80H514v10.24c0 66.168-53.832 120-120 120s-120-53.832-120-120v-104c0-66.168 53.832-120 120-120s120 53.832 120 120v13.76H984zM434 562v-104c0-22.056-17.944-40-40-40s-40 17.944-40 40v104c0 22.056 17.944 40 40 40s40-17.944 40-40z m550 252a40 40 0 1 1 0 80h-118.096V904c0 66.168-53.832 120-120 120-66.16 0-120-53.832-120-120v-102c0-66.168 53.84-120 120-120 66.168 0 120 53.832 120 120v12H984zM785.904 904v-102c0-22.056-17.944-40-40-40-22.048 0-40 17.944-40 40V904c0 22.056 17.952 40 40 40 22.056 0 40-17.944 40-40z" fill="#d4237a" p-id="2501"></path></svg>